<mxfile host="app.diagrams.net" agent="Mozilla/5.0 (X11; Ubuntu; Linux x86_64; rv:131.0) Gecko/20100101 Firefox/131.0" version="24.7.17">
  <diagram name="Page-1" id="_F9EZNsn47e-BeUixu_q">
    <mxGraphModel dx="2413" dy="1277" grid="1" gridSize="10" guides="1" tooltips="1" connect="1" arrows="1" fold="1" page="1" pageScale="1" pageWidth="850" pageHeight="1100" math="0" shadow="0">
      <root>
        <mxCell id="0" />
        <mxCell id="1" parent="0" />
        <mxCell id="3RhLqnkUmdzyEgS-0OvZ-1" value="" style="shape=image;verticalLabelPosition=bottom;labelBackgroundColor=default;verticalAlign=top;aspect=fixed;imageAspect=0;image=data:image/jpeg,/9j/4AAQSkZJRgABAQAAAQABAAD/2wBDAAUEBAUEAwUFBAUGBgUGCA4JCAcHCBEMDQoOFBEVFBMRExMWGB8bFhceFxMTGyUcHiAhIyMjFRomKSYiKR8iIyL/2wBDAQYGBggHCBAJCRAiFhMWIiIiIiIiIiIiIiIiIiIiIiIiIiIiIiIiIiIiIiIiIiIiIiIiIiIiIiIiIiIiIiIiIiL/wgARCAFZAncDASIAAhEBAxEB/8QAGwABAAIDAQEAAAAAAAAAAAAAAAUGAQQHAwL/xAAaAQEBAQADAQAAAAAAAAAAAAAAAQIDBAUG/9oADAMBAAIQAxAAAAHqrHGepezuPOPqdgzx4vYXHh2Fx4dhceHYXHh2Fx4dhceHYXHh2DPHh2Fx5Z2Fx4dhceHYXHh2Fx4dhceHYXHh2Fx5L2Fx4dhceWdhceHYXHh2Fx4dhceHYXHh2Fx4dhceHYXHh2Fx4dhceHYXHh2Fx4dhceHYXHh2Fx4dhceHYXHkdhcekrydPHP38cR7fxDr+PsDq/PgAAAAAAAAAAAAAAAAAAAAAAAAAAAAAAAAAAAJKNkt9vqo731ziHb+IcHjbA6vz4Dw961ydqUc+x2/W6E56OhOejoTno6E56OhOejoTno6E56OhOejoTno6E56OhOejoTno6E56OhOejoTno6E56OhOejoTno6E56OhOejoTno6E56OhOejoTno6E56OhOejoTno6E56OhOejoTno6Fnnn2nUGcdDwwYSUbJb7fVB3vrnEe3cR4PG2DPV8Ev8AJdj2+XVnu/GuTm5+T/a7sAuTr6pq5CmrkKauQpq5CmrkKauQpq5CmrkKauQpq5CmrkKauQpq5CmrkKauQpq5CmrkKauQpq5CmrkKauQpq5CmrkKauQpq5CmrkKauQpq5CmriKd9yEf2MdRweV8mEwko2S32+qjvfWuIdv4hwePsZxnq+H1GVipX0vs3C+6cL3nnM/XrDjjkh52wAAAAAAAAAAAAAAAAAAAAAAAAAAAAICPkI/wBPi6lg8v5MGElGyW+31Ud/63HEe38Q6/j7GcZ6vh9RlYqV9H7NwruvCuTPOLDXrDjikh53IAAAAAAAAAAAAAAAAAAAAAAAAAAAABAaG/oenxdQHl/Jgwko2S32+qjvfXOI9u4jweN75xnq+H1GVipX0fs3Cu68K5M84sNesOOKSHncgAAAAAAAAAAAAAAAAAAAAAAAAAAAAEBob+h6fF1AeX8mDCSjZLfb6qO/9c4h27iPX8bYzjPV8PqMrFSvo/ZuFd14VyZ5xYa9YccUkPO5AAAAAAAAAAAAAAAAAAAAAAAAAAAAAIDQ39D0+LqA8v5MGElGyW+31Ud761xDt/EODx9jOM9Xw+oysVK+j9m4V3XhXJnnFhr1hxxSQ87kAAAAAAAAAAAAAAAAAAAAAAAAAAAAAgNDf0PT4uoDy/kwYSUbJb7fVR3vrnEO3cR4PG2M4z1fD6jKxUr6P2bhXdeGbzzifgJyccq8Xn79nkPV5D1eQ9XkPV5D1eQ9XkPV5D1eQ9XkPV5D1eQ9XkPV5D1eQ9XkPV5D1eQ9XkPV5D1eQ9XkPV5D1eQ9XkPV5D1eQ9XkPV5CGjt/R9Li6gPK+TBhJRslvt9VHe+uxxHt3EeDxtgdXwPv78Wux7VKz1vl7dQfePR9r5fQ+X0Pl9D5fQ+X0Pl9D5fQ+X0Pl9D5fQ+X0Pl9D5fQ+X0Pl9D5fQ+X0Pl9D5fQ+X0Pl9D5fQ+X0Pl9D5fQ+X0Pl9D5fQ+X0Pl9D5+8fcnT8HkfLA40lGyW+31Ud767HEe3cR4PG2B1fnwGcFywbywrLAywMsDLAywMsDLAywMsDLAywMsDLAywMsDLAywMsDLAywMsDLAywMsDLAywMsDLAywMsAJxgJKNkt9vqo7312OI9u5Nw+XpJJweLGtr6jTSXgajb96jUlox5pIRr03iNSWuarb96jW2jUSSo16b0RqS0q8kkiNbWTUSXiabZ2SNSWieaSVGtn7jTSWuarb96jW58RrJJUa9N6I1JaxrNz2qNSQjUkI1JCNSQjUkI1JCNSQjUkI1JCNSQjZLO/rs9FHb+lCwZIDY19hZaCnYKE7BTtKRd6RF3CUW9UW9NK/YIA9ZqFmrIISzuMrmj3ijXnOlJu1JsuuSyv8At4+01NRMtE3GjZK3ZM8mKPeKRZeBc1ve0d7Opav2CAr1moWasiNLd0s6sg1ii3qi3qaVuyVtd6WiZa4AAAAAAAAAAYziMi0LGcZK/s62zLLQU7BCdgp0Ui70gu4Si3qi3qaQE/AHrNQs1ZBCWdGs0a80a850pN2pNl2CV/28faamomWibnRslbsk3ikXekJeBc1ve0d6aloCfgD1moWa1IjS3dLNsguaLeqLeppW7JW13paJlrgKAAAAAAAAADIFDUZxkr+zrbMstBTsEJ2CnRSLvSC7hKLeqLeppAT8Aes1CzVkEJZ0azRrzRrznSk3ak2XYJX/AG8faamomWibnRslbsk3ikXekJeBc1ve0d6aloCfgD1moWasiNLd0pbILmi3qi3qaVuyVtd6WiZa4CgAAAAAAAAAgDLCmcCB2NfYlloKdgoTsFO0pF3pEXcWUW9UW9TSAn4A9ZqFmrIISzouaNeaNeZpSbtSbLsEr/t5e01MxMtE3OjZK3ZJtRrzR0vBm5rW9o701LQE/AHrNQs3ZEaO9o51ZBrFFvVFvU0rdkra70tEy1wFAAAAAAAAABAUABEbO8hES4iJfGTFWtWIyCo27GVQk1myMkyohLoYyKjbsZFWtKgiE2JLI0d4V+wBipW7EZFV+S3ghJvBGyYaMZYQBUbcCv2AaO8UAAAAAAAAAAGQaAMZ88qluan1M22GmYBrZla3Yypy9Xk2bVV7Vz6akbhVrTUNXZKES/e3j76tYjNewZk5V7XzItNmptyWuMfNlngZ6AXz2oqbT5gp2KjcnIOdWi73h72WyFmqXLi60y52RMJI0o6H4SOqRc1Cbcs7GSfzVWtcZJpiN1NaWzvn60CgAAAAAAAAAyDQB8/WtFL2dSSmbHSrnAS78tBz688n4ncS30a9rqt2PIqW5mNkuOdHerme5fyR9RudXjZtVYs60L62cWXOsWisrE2SJm01YCwxxsy8XOS0CV1t1m0025VBqK6JSrrZV4uV1yc8tnXWuS2vtyT1Vt1fXxstQuFRNfnqkl/9tfYtCgAAAAAAAAAgAzikbJIr+ttyeW2NHn6K8PcgKAr0bc0mvsFoGrXLait2QKn824iv2AtUmpEkVE2ssHMegp+xaCKtaS025CV7UtitHzkktU3p0K1ZYFKp0io27JXPfVqw+3x92hQAAAAAAAAAAZBoAzgAAAAAAAAAAAAAAAAAAAAANfYR4+wZYUAAAAAAAAAAAAEf/8QALBAAAAQFBAEDBQEBAQAAAAAAAAMEBQECEBM1EhQVMzQgMkQGEUBQYCExJP/aAAgBAQABBQL+QKOOiRdNF00XTRdNF00XTRdNF00XTRdNF00XTRdNF00XTRdNF00XTRdNF00XTRdNF00XTRdNF00XTRdNF00XTRdNF00XTRdNF00XTRdNF00XTRdNF00XTRdNF00XTRdNF00XTRdNF00XTRdNF00XTRdNF00XTRdNF00XTRdNF00XTRdNF00XTRdNF00XTRdNF00XTRdNF00XTQgNNi6UJ8f+Lb8tQnx/4tvy1CfH9JhxZMN8mG+TDfJhvkw3yYb5MN8mG+TDfJhvkw3yYb5MN8mG+TDfJhvkw3yYb5MN8mG+TDfJhvkw3yYb5MN8mG+TDfJhvkw3yYb5MN8mG+TDfJhvkw3yYb5MN8mG+TDfJhvkw3yYb5MN8mG+TDfJhvkw3yYb5MN8mG+TDfJhvkw3yYb5MN8mG+TDfJhvkw3yYb5MN8mG+TDfJhvU/qb8tQnx/S7ez9/L7vS35ahPj+l29tft+8l93pb8tQnx6IECSdr41EONRD6qJKIdQj6P3i3ul90fS35ahPj0bcTT6xzIR9H7xb3S+6Ppb8tQnx6NuJp9Y5kI+j94t7pfdH0t+WoT49G3E0+scyEfR+8W90vuj6W/LUI8ajbiafWOZCPo/eLe6X3R9LflqE+PRtxNPrHMhH0fvFvdL7o+lvy1CfHo24mn1jmQj6P3i3ul90fS35ahHj0bcTT6xzIR9H7xb3S+6Ppb8tQjx6NuJp9Y5kI+j94t7pfdH0t+WoR49G3E0+scyEfR+8W90vuj6W/LUI8ajbiafWOZCPo/eLe6X3R9Lfl6E+PRtxNPrHMhH0fvFvdL7o+lvy9CfHEP+tuIp9YZgJJ5ZSbkguyC5ILkguSC5ILkguSC5ILkguSC5ILkguSC5ILkguSC5ILkguSC5ILkguSC5ILkguSC5ILkguSC5ILkguSC5ILkguSC5ILkguSC5ILkguSC5ILkguSC5ILkguSC5ILkguSC5ILkguSC5ILkguSC5ILkguSC5IFc0JjZfd6W/LUI8ekJzJZbpoumh3/2P7+X3R9LflqEeP6XaH3l0xGmI0xGmI0xGmI0xGmI0xGmI0xGmI0xGmI0xGmI0xGmI0xGmI0xGmI0xGmI0xGmI0xGmI0xGmI0xGmI0xGmI0xGmI0xGmI0xGmI0xGmI0xGmI0xGmI0xGmI0xGmI0xGmI0xGmI0xGmI0xGmI0xGmI0xGmI0xEssdXpb8vQnx/4tvy1CPH/i2/LUJ8f+Lb8tQttXSlcetHHrQYlVFRLRqjiePWgxKqKiWlVGx49aOPWiBR803HrRx60WjtPHrRx60TJVMhpaRUdJx60GJVRUS0qo2PHrRx60SlHzw49aOPWgwo8mPHrRx60TJVMhpaRUdJx60GI1ZJUEymJvHrRx60SlHzy8etHHrRFMpgcWjVHFcetEyVTIaWkVHScetBiNUSVBMpibx60cetFo7Tx60cetEUymBxaNWcTx60cetHHrRx60cetHHrRx60cetHHrRx60cetHHrRx60cetHHrRx60cetHHrRx60cetHHrRx60IUKoty9Lj2NmHDh2N/bQnvp8airKtnhBw7W/tok6KOfZRVlWzwg54gvL0SePSfMNmICrKtnhBzw8mXp8ak+YbMR+Y4+9sw4cO1v7aEeRT4tFWVbPCDh2t/bRH0UdOyirKtnhBzw5eYok8ek+YbMOFWVbPCDnh5MxT4tDMw2Yf8xx97Zhw4drf20I8inxaKsq2eEHDtb+2iPoo6dlFWVbPCDnhy8xRJ49J8w2YcKsq2eEHPDyZenxaGZhsw/5jj72zDhw7W/toR5FPi0VZVs8IOHa39tEfRR07KKsq2eEHPDl5iiTx6T5hsw4VZVs8IOeHky9Pi0MzDZh/wAxx97Zhw4drf20I8inxaKsq2eEHDtb+2iPoo6dlFWVbPCDnhy8xRJ49J8w2YcKsq2eEHPDyZenxaGZhsw/5jj72zDhw7W/toR5FPi0VZVs8IOHa39tEfRR07KKsq2eEHPDl5iiTx6T5hsw4VZVs8IOeHky9Pi0MzDZh/zHH3tmHDh2t/bQjyKfFoqyrZ4QcO1v7aJOijp2UVZVs8IOeHLy9Enj0nzDZhwqyrZ4Qc8RJmKfFoZmGzEfmOPY2YcOHa39tCPIp8WirKtnhBw7W/tok6KOfZRVlWzwg54iTL0SePSfMNmHCrKtnhBzxBeYp8WhmYbMR+YuINOgjJinQBcQacEJBpMKFIlMqumyVfeisg+dUhJnISBcQacEJJpNUqJWXVeiUnm0VkHzqkJM5CULCoqEJCdTvqJUSsuqhOp36MqKdAFZB86pCTOQkCwmKhAnTqd9TYqvvRQnU79GVFOg/qoiWLg4ykHqSFgnUTSvB6mJa8QXHF/Tas6Yo2P+S8nNKwSzLkJ4Up1Mxsz0YlmKMukg2LrLFMtcFSwye2UnKXLCSJ1SVeDHeWRVK6xmnCw5Ru5FR6c9rOMUNi9ROmSbhyioQqD5jY/8JXOhp7Sa4HSCVZGBu6cS0cP9gapmKciYLlpSBRFW3upxhDXuliSKdUSqLChelSmNbqQoSUIibFV+ZPD7yJ4uaVF916pYD5CV6ohMmROc3ti2tEW6DcgQqwXO3wWSKoL1IcmqVabK5Qb5iTLpIUEOKtaWYvljGMISxi3RDTFPuRO4pCV5byVOcFx6dOoUOqY0pAWSW3r5iJUcXhP9m+ck+YHuLerKaFEkpYXxa5lhjglOKDmemgXNBHLMniXFMvsbHmiNCA9OpnH2CFPFKgBzqSRNF7TQkhH7w/LjD7wWFJU0zagWSHnxNgQeoKNPRopSjDOohOcsbtotMWDaufEJuUgaF6G8sTK0ckaRdk5DeodUqhKtKmObzuSNgRvT3MGFuEhEYOJyYK5VZTkmi5JothJidtcyjjCvu58i3yKdypLiajMlcjE5e+UOQnguJOjI5xZwqgsJdE0XNNK3lTkNrkWaajmmc51yKVVOum1aDVjiUdBUukWBxInUoD1x6tMVLGQn8s/xuPlbUjcddUqDZySI8oqlbWzjxGMJZVhzQcc3RcNz6FSpRu4rFC2CQnbo6qTdukKZSVZCYudC5CVHK7HmI5WmIWwmVOEWFMVKgURVt7mcYUlh9PoQ3TmSzTR0yJ2spySlFRbnETJeUWnoZGgkLJZlrlMxkEFoj90gcjjCEHAI4hBEwlQHIr/CClKwwORk5TdIeWlKJ17f8teVMe2lTEOaCUws9/rPJKZIWVITJ6VKFTOtlbHCScmWeQiqgmChLBtXwlTt55awcWqkMmalRlFaA09XxzgESbZolySKwnj14QoZ0s80uqQtqWlFFNqiCwGNqncGtKw8kK2845Zxy8JE+0RrUsVaXjl4RoTU54cpP/Q3mblLRSjSpEpcdRX5ilnQqzCE5SUr9XzDeD3FMoVA9rJUHxY0s0ssNMv8TZLECpIR/q//xAAuEQABAgMIAQMEAwEBAAAAAAAAAQMCEBUEERITFDEyUlEFQEEgITNCMDRQYXH/2gAIAQMBAT8BtFpgYS+IqjJVGSqMlUZKoyVRkqjJVGSqMlUZKoyVRkqjJVWSqMlUZKoyVRkqjJVGSqMlUZKoyVRkqjJVGSqMlUZKoyVRkqjJVGSqMlUZKoyVRkqjI16g05FhSXrHCH/GsP8AYhl6xwhnZGkdcwxFOaKc0U5opzRTminNFOaKc0U5opzRTminNFOaKc0U5opzRTminNFOaKc0U5opzRTminNFOaKc0U5opzRTminNFOaF9OauI0uiulYf7EMvV+CECYorhPSEVNxr09GIsV5uYTCYTCYTCYTCYTCYTCYTCYTCYTCYTCYTCYTCYTCYTCYTCRDnNZWH88MvV+CDXNCHYj2E9/EOc1lYfzwy9X4QjXNCHYj2IffxDnNZWH88MvV+EI1zQh2I9iH38Q5zWVh/PDL1jhCNc0IdiPYh9/EOc1lYf7EMvV+EI1zQh2I9iH38Q5zWVh/PDL1fhCNc0IdiPYTf38Y5zWVh/PDL1jhCItymre7FjtDkbl0Sl6F6F6F6F6F6F6F6F6F6F6F6F6F6F6F6F6F6F6F6F6F6F6F6F6F6F6F6F6F6F6Cqlw5zWVh/PDL1jhDNFVNjNj8mbH5M2PyZsfkzY/Jmx+TNj8mbH5M2PyZsfkzY/Jmx+TNj8mbH5M2PyZsfkzY/Jmx+TNj8mbH5M2PyZsfkzY/Jmx+TNj8mbH5M2PyZsfkzY/Jmx+TNj8mbH5nYfzwy9TZjdgRIENDaOpobR1NDaOpobR1NDaOpoX+pobR1NDaOpoX+pobR1NDaOpobR1NDaOpoX+pobR1NC/1NDaE/U0No6mhf6mhtHU0No6mhf6mhtHU0L/U0No6mhtHU0T/U0No6mhtHU0No6mhtHU0No6mhtHU0No6mhtHU0No6mhf6lksj0DyKqfR8CboLuokovgh3l+kohN5fAo5yUSS8UId5JxWUXwN8kE/n+CHdBdxJRfBDvL9JREO8v1FHOSiSXihDvJOKyi+BvknsPgh3QXcSUXwQ7y/SURDvL9RRzkokl4oQ7yTisovgb5J7D4E3QXdRJRfBDvL9JREO8vgUc5KJJeKEO8k4rKL4G+Se4/59e/8ACn29ml8kmgon0p/AnsfmSfV95/eX/skPvP7yS+a+wvX6rvrundK76U/1/wD/xAAnEQABAgUDBAMBAQAAAAAAAAAAAQIQERMUUQMSMSAwMkEEIUAzUP/aAAgBAgEBPwF79vJXQrtKzSs0rNKzSs0rNK7SuhXQroXCFwhcIXCFwhXQroV0K6FdCuhXQroV0K6FdCuhXQroV0K6FdCuhXQroJqoqyENfj/G0/KGvxHTbudJS1aWrS1aWrS1aWrS1aWrS1aWrS1aWrS1aWrS1aWrS1aWrS1aWrS1aWrS1aWrS1aWrS1aWrS1aWrS1aWrY6fkIa/EKBpaMnTHv2JMukwXSYLpMF0mC6TBdJgukwXSYLpMF0mC6TBdJgukwXSYLpMF0mC6TBdJgukwXSYLpMF0mC6TBdJgukwXSYLpMF0mC6TBdJgRdzZx0/IQ1+IIN5PkeH79PwSOn5Q1+IIN5PkeH79P+cdPyh8jiCDeT5Hh+/T/AJx0/KGvxBBvJ8jw/fp/zjp+UNfiCDeT5Hh+/T/nHT8oa/EEG8muk2Gx2DY7Bsdg2OwbHYNjsGx2DY7Bsdg2OwbHYNjsGx2DY7Bsdg2OwbHYNjsGx2DY7Bsdg2OwbHYNjsGx2DY7Bsdg2OwbHYNjsDPCOn5Q1+IbnZNFy7yZNCaE0JoTQmhNCaE0JoTQmhNCaE0JoTQmhNCaE0JoTQmhNCaE0JoTQmgq/UdPyhrcdMyZMmTJkyZMmTJkyZMmTJkyZMmTJkyZMmTJk46fkIarZ8FNxTcU3FNxTcU3FNxTcU3YKbim4puKbim7BTcU3FNxTcU3YKbim4puwU3FNxTcU3FNxTcU3FNxTcU3FNxTcU3FNxTcMYqLCRIkKJwKhIQXiHuCCw9wQVIexeCQvJIQXjuKcdCicCwQXiHuDRRD3BvAsE5F4gvMEHcdxelROBYILxD3Booh7g3gWCci8QXmCDuO4vSonAsEHcQ9wQUQ9waLBOR3EF5PQg7juL1/UPrt/R9dHPfWK9j10TgnSnTPurFelEj66fXdTuTgsJQl1y6ZdmQncX9Mvwf/xABIEAABAgIECAoHBwIHAAMAAAACAQMABBAREnMTITEyNJOx0QUzQVFhcXKRkqEgIoGys8LDFCNAUGB0hELBFTVDUlNi8SRj4f/aAAgBAQAGPwL9INqszMVqKf6xRpExri3xpEzri3xpEzri3xpExri3xpExri3xpExri3xpExri3xpExri3xpExri3xpExri3xpExri3xpExri3xpExri3xpExri3xpExri3xpExri3xpExri3xpExri3xpExri3xpEzri3xpEzri3xpEzri3xpEzri3xpEzri3xpExri3xpExri3xpExri3xpExri3xpExri3xpExri3xpExri3xpExri3xpExri3xpEzri3xpEzri3xpExri3xpExri3xpEzri3xpEzri3xpEzri3xpEzri3xpEzri3xpEzri3xpEzri3xpEzri3xpEzri3xpEzri3xpEzri3xpEzri3xpEzri3xpEzri3xpEzri3xpEzri3xpEzri3xpEzri3xpEzri3xpEzri3xpEzri3xpEzri3xpEzri3xpEzri3xpEzri3xpEzri3xpEzri3xpEzri3xpEzri3xpEzri3xpEzri3xpEzri3xpEzri3xpEzri3xpEzri3xpEzri3xpExri3xpExri3xKorzyopLWhOKqZq0tdlP0ZKdpfcKlrsp+jJTtL7i0t9lPSTClVXHG+Sxxnkscb5LHG+SxxnkscZ5LHGeSxxnkscZ5LHGeSxxnkscZ5LHGeSxxnkscZ5LHGeSxxnkscZ5LHGeSxxnkscZ5LHGeSxxnkscZ5LHGeSxxnkscZ5LHGeSxxnkscZ5LHGeSxxnkscZ5LHGeSxxnkscZ5LHGeSxxnkscZ5LHGeSxxnkscZ5LHGeSxxnkscZ5LHGeSxxnkscZ5LHGeSxxnkscZ5LHGeSxxnkscZ5LHGeSxxnkscZ5LHGeSxxnkscZ5LHGeSxxnkscZ5LHGeS+lKdpfcWlvsp6TPt/QCelKdpfcWlvsp6TXt/QCelKdpfcKlvspTKkcqwpE0KqqtpjxRocvqkjQ5fVJDQsNg2OBRagSrlWhev8APU6oT0pTtL7hUt9lKZO5DZSzcJtWhev89TqhPSlO0vuFS12Upk7kdlLNwm1aF6/z1OqE9KU7S+4VLfZSmTuR2Us3CbVoXr/PU6oT0pTtL7i0t9lKZO5DZSzcJtWhev8APU6oT0pTtL7i0t9lKZO5DZSzcJtWhev89TqhPSlO0vuLS32Upk7kNlLNwm1aF6/z1OqE9KU7S+4VLfZSmTuQ2Us3CbVoXr/PU6oT0pTtL7hUt9lKZO5DZSzcJtWhev8APU6oT0pTtL7i0t9lKZO5DZSzcJtWhev89TqhPSlO0vuLS32Upk7kdlLNwm1aF6/z1OqE9KU7S+4tLfZSmTuQ2UtXCbVoXr/PU6oT0pTtL7hUt9lKZO5DZS1cJtWhayRMfPGePfGePfGePfGePfGePfGePfGePfGePfGePfGePfGePfGePfGePfGePfGePfGePfGePfGePfGePfGePfGePfGePfGePfGePfGePfGePfGePfGePfGePfGePfGePfGePfGePfGePfGePfGePfGePfGePfGePfGePfGePfGePfGePfGePfGePfGePfGePfGePfGePfGePfGePfGePfGePfGePfGePfGePfGePfGePfGePfGePfCWVrxQnpSnaX3Fpb7KUoIPPiKYkRHijSJjXFvjSJjXFvhoyIzLJWZKX6AT0pTtL7i0t9lPSa9sZIyRkjJGSMkZIyRkjJGSMkZIyRkjJGSMkZIyRkjJGSMkZIyRkjJGSMkZIyRkjJGSMkZIyRkjJGSMkZIyRkjJGSMkZIyRkjJGSMkZIyRkjJGSMkZIyRkjJ6Up2l9xaW+yn6MlO0vuLS32U/Rkp2l9xaW+yn6MlO0vuLSArKHWiVZ4b40Q/GG+NEPxBvgMJLGltbI+sOWqvn6IBxuVNQNLQraHJ3xoh+MN8BbljS2tkfWHLVXz9EHYljWwtkvWHLVXz9MaIfiDfGiH4g3wKJLnWRqCYxypXXy9Cxoh+IN8aIfiDfFf2c6rdjKOWuzz88aIfiDfGiH4w3wLZSx2yRVRLQ8nt6YtNypqlapnDyLVzxoh+MN8AhyxpbWyPrDlqr5+iDsSxrYWyXrDlqr5+mNEPxhvjRD8Yb4ZUZc1R7MxjjxV88aIfiDfGiH4w3w5hJc0wYWyxjiTH09Cxoh+IN8aIfiDfAtlLHbJFVEtDye3pi03KmqVqmcPItXPGiH4g3wbjkqaACVqtod8I39mO2qKSJWORPb0xoh+MN8aIfiDfDKjLmqPZmMceKvn5o0Q/GG+NEPxBvhW1ljtoiEqWhyL7eiAcblTUDS0i2h3xoh+MN8C2UsdskVUS0PJ7emLTcqapWqZw8i1c8aIfiDfBuOSpoAJaJbQ74RtJY7aopIlY5E9vTGiH4g3xoh+IN8V/Zzqt2Mo5a7PPzxoh+IN8aIfjDfCtrLHbREJUtDkX29EA43KmoGlpFtDvjRD8Qb40Q/GG+NEPxhvjRD8Yb40Q/GG+NEPxhvjRD8Yb40Q/GG+NEPxhvjRD8Yb40Q/GG+NEPxhvjRD8Yb40Q/GG+NEPxhvjRD8Yb40Q/GG+NEPxhvjRD8Yb40Q/GG+NEPxhvjRD8Yb4lzclyAAVayUh/2r0+lJX3yFElchsokr/wCQonr/AOQaZb9699Sn+d9emWunNoQt8775USN/8hRPX/yDTwN7PhFTwj+yT6lMtcubQhb534hUTtyeyGbhzaFPA3s+EVL1w3tOJO5DZRLXTm0IW+d98qJ25PZDNw5tCn+d9el64b2nEnchs/GyV/8AIUSVwGyiRv8A5Ciev/kGmW/evfUp/nfXplrpzaELfO/EKiSv/kKJ6/8AkGngb2fCKnhH9kn1KZa5c2hC3zvxConbk9kM3Dm0KeBfZ8IqXrhvacSVyGyiWunNoQt878QqJ25PZDFw5tCn+d9el64b2nElcBs/GyV/8hRJXAbKJG/+Qonr/wCQaZb9699Sn+d9emWuXNoQt878QqJG/wDkKJ6/+QaeBvZ8IqeEf2SfUplrlzaELfO/EKiduT2QzcObQp4F9nwipeuG9pxJXIbKJa5c2hC3zvxConbk9kMXDm0Kf5316XrhvacSVwGz8bJX/wAhRJXAbKJG/wDkKJ6/+QaZb9699Sn+d9emWuXNoQt878QqJG/+Qonr/wCQaeBvZ8IqeEf2SfUplrlzaELfO/EKiduT2QzcObQp4F9nwipeuG9pxJXIbKJa5c2hC3zvxConbk9kMXDm0Kf5316XrhvacSVwGz8bJX/yFElcBsokb/5Ciev/AJBplv3r31Kf5316Za5c2hC3zvxCokb/AOQonr/5Bp4G9nwip4R/ZJ9SmWuXNoQt878QqJ25PZDNw5tCngX2fCKl64b2nElchsolrlzaELfO/EKiduT2QxcObQp/nfXpeuG9pxJXAbPxslf/ACFElcBsokb/AOQonr/5Bplv3r31Kf5316Za5c2hC3zvxCokb/5Ciev/AJBp4G9nwip4R/ZJ9SmWuXNoQt878QqJ25PZDNw5tCngX2fCKl64b2nElchsolrlzaELfO/EKiduT2QxcObQp/nfXpeuG9pxJXAbPxslf/IUSVwGyiRv/kKJ6/8AkGmW/evfUp/nfXplrlzaELfO/EKiSv8A5Ciev/kGngX2fCKnhH9kn1KZa5c2hC3zvxConbk9kM3Dm0KeBfZ8IqXrhvacSVwGyiWuXNoQt878QqJ25PZDFw5tCn+d9el64b2nElcBs/GyV98hRJXIbKJK/wDkKJ6/+QaZb9699Sn+d9emWuXNoQt878QqJK/+Qonr/wCQaeBfZ8IqeEf2SfUplrlzaELfO/EKiduT2QzcObQp4F9nwipeuG9pxJ3AbKJa5c2hC3zvxConbk9kM3Dm0Kf5316XrhvacSdwGz8awrCApNOWqjKr+lU5umJdk6rTbYitXQlDCsICk05aqMqv6VTm6YfV9AQnXLVQFX/Sic3RS2pI1ggfN2tDWvHa5Kv+1NipnB/aMLawi11YS1kqpZdl0bKwBCqGdnLZ6F5osO2bdsiWytaYyVf70MKwgKTTlqoyq/pVP7w+r6AhOuWqgKv+lE5uimSF1GUCWyqLiqq+oo83TTMYBGlF5jBeuapVndH/AGpZdl0bKwBCqGdnLZ6F5osvWbdsiWytaYyVf70TDIVWnGyFK+lIF58WhEWyH1DUsqp0JzUyIuoygS2VRcVVX1FHm6aSeYFohJsR9c1HIpdC88S7J1Wm2xFauhKGXZdGysAQqhnZy2eheaLDtm3bIlsrWmMlX+9EwyFVpxshSvpSBefFoRFsh9Q1LKqdCc1NipnB/aMLawi11YS1kqpJ5gWiEmxH1zUcir0LzxLsnVabbEVq6E/VmGl5kJWXXi/u7REnOtcBKz6ieET7p4EqtVZUVKGmFVBbNpVT/sVaRKMDV98pWupEobmlW2+ojlTnWqJMQXjHrJdVlaG5srJvuD6ojymvJEqs3NC+EweDIbFVlauSjCS05gucCBCFYQX/ALNMLXVVKuVl4YByyQ2krsllSglQ5BG05SQskCjCsOyyF67uDUUy/wBOPHBHUq2UrqSAmHJ7BC4NpG2W0xe1Yblpt5JgXhVROxZVKueh1kZSbdJpaiVsEVNsCP8Ah88la1Vq2mLzoZlpSwJGKkRmldSJ/wCwjXCKBZPMfBKhVeZeZYaceW0ZV1rV0wpsihOqSCCFkrVaoSTLAA+Q28MKKo2ernrqh+Xm7Kus1euKVISLkWMUEyoSTb448GalXVz9MIUz9nVm0aVoq2s5aJ/CZksuKrmsosJPO4FWakMmEHGI9fPQy0dSNPCtS1f1Jyd0FMjOYGslsNYNFQal5YZeJKlMccPOMFZcSqpaq6scVTjOGb/5pdNo7otyzguD/wBVoQJh8GyVK6iWJcXJkCmSHGPLXTNo5Xg0NMHXzWU/v+NVE5oaaSTZPBAg4nqq/KJTDyQsttGpKeGQv6VT+9DspMtIQNiJovLWte6BBpr711tSV0jVVxVYsfXCw1NFJ+o5ZqRCWv1vb0xKk2ySOEdkFtqtXqr00fbEkjFu3pK5lfPVX5wwTcm+TYFWjx+qOTL00I6r5DZTNNLQd0YJsZN+tc2TrQu7HtgDskFpK7JJjSgvtMsLksJeo3h7Ir0lzwArKMA3k9V7IndCquSCJh7hCVFfWEWlUUc7MGOCmgm7FdqbziGg0UTtYgceQPVTmRV9sAOBmBacKyDxBUBUMOOg4b6V2BaRVWrlhQCXem2iH18EFdnoWGRlMbFVYQRTdeCRUXFXXXXiyQhCy8Uzm4HB/ef+RMPtg4DpkiOC6lSjUmShcMjqCPrNuKKja7C88JJ4OabNKzT7QNSljx7aCGZYU3P9RwAX1O0qR9mJmZ+yF919oRPUXky+VCMTTRvYTHYbG0vXBqy5wpMS6+s4jZVhj5FhtWKsFZSxVzQ79sWpiqsoxNzGG5GMHUa+yHjaZVl+up0TGouiulhk1RSbGpVSg0cCYqDKWBKqEKxM2VyLgCxxX+MqhG0mp9XyyNMvkpLCPzUy8gckuTtvvWCWXQSc5EJakgCnMPwbNj6qOf0l0V5FhZgnimHjSrClzdEFyYoaZleEpdxpqzVU1jxZK8cSzky8wTbJKVQAqcipz0fYkblKsHg7dtd0AkwEpguWwpV0C85KDNAKYhwlSp7MiwjICksX/EYWP/fZTPypvqk1aeQUQV51qhhpkyJ3CN4rBf7k6ImWm89xshTuiWReDWvuDQ0++TkSGnZqVFkGwJK0ctV11bqJyWbkWzbeNz18MiZyrDUsUgAAih6yPJiqVOShJiUlgeRWrC1nZqxw9Y4Nb+9cVzj0hpt4UE0rrFOTHDJS7Yum06h2CWquEmv8NbtYPB8enPXE09NsiyrtmoRK1kh5sc4wVEiWbXg1qpghJPvk5IlnJmUBkGrXrI7aypRNg1JA808dq0rqJyIkfYv8PbqwWDtYZObLQsxKyovCTKBWrlmqpV3w6g8Gt/eOE5x6csS7TiVGAVKkfcAhuCYkgKtVdRIsNTH+HN1tiQ8enLVu84ffm5dGbQCKIh2q6lXfC2KrXJXDTX2aXI3VxILq+1ckMNzLLANurVbE1XHzZKHG2rNvEqIWRalrqhyVDg6ZF1wbFbiVANfTACRWlRKlXn/GO1uYNLK+v/t6YN9rhM2wLGrqtiVdfsxwqf4qM36teDRsU2QpNtE6fIA8sVE1Ky7ZZUNcIu6HPvlNXMqIKCKdSJCqS1InLHq/ezOVClEVT70hEcQ/sdWWZqwnl6KS0i0BOWLZE4tSIlf/ALBMNyAEYYncMXqCv94bbVBFUTGgZK+j0Hnqq8GClV1QDvCdt+YNK1VTVEHoSElkcM5d0FIEMq1BUqxdWOiYOdUiYBxW22UKpMXLi6YaekSMGbYi4ypKo1KtVfXQ1JI4TbVjCO2MSljqRK4UpBXJZ/kMXF8+eGXlxEQ+t18sCLBWXXnBbEv9tfLFpUdV7/mwpWuuJiVfcVwpckRDXKoqlaVwqryQ3M8JWnnHktoltUQEXIiQyy24ZSswioIGtdgkTkXmqomUmiL7MyWDFoSqRVqRVVe+PtPB6mANY3GbSqJDy5eWgZO2QMC3hHLC1KVa1InksEXBqnLvpjQhcWpeuuGHlxK4CEsGrHGkqACryKq1QhPYV17/AJSdKuH5R5xXMEgk2ZZVFefuobmQmBYcYrqJzNVF5FiXen35ZWhK02MvXUS9a0Om2VlUqrJErspXjXujhQQmiUEAcEau1rWo8kN4XjLKWuv8ZMtBnG2SJ3Q3UWJFFVHlFUWupYFGMaMNEjhDkrVUxeXoKBoiiSVKi8sWWgEBTkFKvSV+Um0YtAgEmCtV1V74cIOFERXCtF/8ZOarngBdcwhomM6qq/QdZJakcBRr64RE4VOpP/pGBfmZwn7AqgooIlVf/lDqy/CJtAZqdjBotVcCj/CRuN2kVQwSJXUtdAvy80UuaBYWoEKtI/zY9SMNsWrdj+qBEXVaMDQxNErqWP8ANT1Iw849MK+47VWSjVkhR54FtvhQ0AEqFMCOJIZemZ4n0arVAVtEypVQ85LT5si6VpQRtFx1f/kE07woatliVMCNGHl5wpcrCAqICFXl3x/mx6kYaYRbWDGquFbRzBlWhIaJXUqLXH+bHqRh12YmVmDNEGtQQaqq99Eq86yrzDddoUS1UvIVXLy98cHy7AOfcu23Ds1IKY8XnTMTTEqyjzYEYrY5aoFVyqn422/Lip86Yq+6MHLti2HMKflmmM+KJEJWYAyw+NBXkslQThm/aL/a6qJCoRTCouVFeKEROT9FcWPdFaANfV+rP//EACsQAAIBAgUEAQUBAQEBAAAAAAABESFREDFBYfAgcaHxMEBQgZGxwWDR4f/aAAgBAQABPyH/AI/QfgsG9aO//GLu3b9+/fv379+/fv379+/fu3bt27bv37d+fbty7t2/fu3bt27du3bt27du3bt27du3bt27du3bt27du3bt27dv25RP1vq+TewsOat9dH3DYzmrf8ft563U4LPRmwLYltC2hbUtqW1LaltS2pbUtqW1LaltS2pbUtqW1LaltS2pbUtqW1LaltS2pbUtqW1LaltS2pbUtqW1LaltS2pbUtqW1LaltS2pbUtqW1LaltS2pbUtqW1LaltS2pbUtqW1LalsSnyUsvg289bq5HYbJJJZLJZLJZLJZLJZLJZLJZLJZLJZLJZLJZLJZLJZLJZLJZLJZLJZLJZLJZLJZLJZLJZLJZLJZLJZLJZLJZLJZLJZLJZI/wCwefXtuc9bBVyIZDIZe10foZDZDsSIdiHYh2IdiHYh2IdiHYh2IdiHYh2IdiHYh2IdiHYh2IdiHYh2IdiHYh2IdiHYh2IdiHYh2IdiHYh2IdiHYh2IdiHYh2IdiHYh2IdiHYh2IdiHYh2IdiHYh2IdiHYh2IdiHYh2IdiDzB59ey5z1sFn3H7czW0a5HFf8OK/4OSBhVZz6dh5nmf4vvvD3eGzfBs562CzOKt6QfJ2X33h7vCZvg2c1bBZnF29IPzP8X33h7s8wzfBs562CzOLt6Qfmf4vvvD3Z5hm+Dbw1sFmcVb0g/M/xffeHuzzDN8G3nrYLM4q3pB+Z/i++8PdnmGb4NvPWwWZxVvSD8z/ABffeHuzzDN8GzjrYLM4q3pB+Z/i++8PdnmGb4NnHWwWZxVvSD8z/F994e7PMM3wbeOtgszirekH5n+L77w92eYZvg28NbBZnF29IPzP8X33h7s8wzfBN562CzOKt6CcHmf4vvvD3Z5xm+CZz1sTgrcVnDNAOtLRHrJ6WetnrZ62etnrZ62etnrZ62etnrZ62etnrZ62etnrZ62etnrZ62etnrZ62etnrZ62etnrZ62etnrZ62etnrZ62etnrZ62etnrZ62etnrZ62etnrZ62etnrZ62etnrZ62etnrZ62esjrQlrk84efXt0OOth3qLYzBiStnju3K3nU5UhaS+7H0SSSSSSSSSSSSSSSSSSSSSSSSSSSSSSSSSSSSSSSSSSSSSSSSSSSSSSSThOHmGbr26HHW6mQ6+hujdG+N8b43xvjfG+N8b43xvjfG+N8b43xvjfG+N8b43xvjfG+N8b43xvjfG+N8b43xvjfG+N8b43xvjfG+N8b43xvjfG+N8b43xvjfG+N8b43xvjfG+ILcP4JvPW6pJ7kk9ye5PcnuT3J7k9ye5PcnuT3J7k9ye5PcnuT3J7k9ye5PcnuT3J7k9ye5PcnuT3J7k9ye5PcnuT3J7k9ye5PcnuT3J7k9ye5PcnuT3J7k9ye5PcnuT3J7k9ye5PcnuT3J7kkzRmdX8G3jrf8ft563/AB21kTC2ixj87Uo2zxmTwsKifgMspWHSlX2eMyeFhKvssYg8KY7Zrw1LZ1I4qY7Rv5Vva3gxGyVQctGVCfEOi1mw1Y37p4aWi7PGZPCwkX2WMQeFMZIn9zadeBPGbJWD/O664qYzdqqPNoqE+IdKy2GrG/dPD64tmcwlVlB9VhwJ+LHStzk0714jx07bizwRpeYVU3C5TUrDJVBy0ZUJ8Q6LWbDVjfunhtdW3IYSqzsHLDE/FjtG/lW9reDEbpuLLBGl5hQbMJlNSvp+3Tp06dOnTp06dOnTp06dOmTp0snFOESnRtWjTp8mfBW4eWPxHyfNFEvKH4DDap0/VLpREOKvxZOqKuh1LjrekUS4K/4OVpcdb9b5Y+Atw8wfiD0NPiJL5h5o/EfJsFNmHBX/AAEoqXJW9L5hwV/wQiS5C363yx8Bbh5g/EHoaYk6dZbMPMH4jDfxMFNqHBX4ktMZtcOXJW9LZhwV/wAGIkuQt+n16vLHwFuHmD8QehpiTp1lsw8wfiMN/EwU2ocFfiS0xm1w5clb0tmHBX/BiJLkLfp9eryx8Bbh5g/EHoaYk6dZbMPMH4jDfxMFNqHBX4ktMZtcOXJW9LZhwV/wYiS5C36fXq8sfAW4eYPxB6GmJOnWWzDzB+Iw38TBTahwV+JLTGbXDlyVvS2YcFf8GIkuQt+t88fAW4eQPxHyZJbAPNH4j5PYpNA4K/Fk8umalyFvS2QcVf8ABCJLiLfrfJnyVuHkj8R8OSUxGQeaPxGGxeiVS6WwDir8OWg8umalwluCYjIOKv8AgJElxlv1s06FpWtUmDIGaeVtCpggnqWFa1SYQDoWFS1TTGl1WnDqmsn9tMeb6TRnTPGarH2Y0qAp1USORSZaXhginoWFa1ST8BNHUsKlqmmBjSPqjBkGvli5lWZsXWaE8/8AgWExWPsxpUBT6wkcikS0vDBtCNLImxCi3pTRtnXCvIaQ90Ycg18sWGvamibGhWwM0sraFhMdj7MaVAU6qJHIpMtLwwZAjSoSbEQNSU8bZ1xvF9Jozpniw1zU0TZ0K2BmllbQv+Bn7U0KWO76uCWaiwkex3OoyToD1wnZl2hQ/C/pNqoDUtMuf3C/I6KwiyyyqrXkXcjpKKjOT/Uh2xrRCgjBJ0pFGb59mIpBRWezUlmqa4KjCr/44Nfsnr/+wC/0yuPFiRTDVx7DPrNqXW6pS1243MmbSz0gziLmG4INJtFK8sxsWFx8nCUipFc8FJwVEFKFLjqO3PBKp+2SAqJZuU1J/gh1YJ/g0ZZXoJqWg1CrUQSTtUjG6KuUo6r2ypMf70RsjR0ckpahHfJL2sUhOwy6UK7SLREr9YRQUCjVyv8ASWzblamVOsPxQZIayZUOr2mZZsqy/Q8SqSFhqidW6XRVGIiynJxsQJbRqiLJmVNvH/VfsXPY5I72wgDUwHFxDw1aG1UxXTUJNxH7fWufIbZEDzFyoKJqUxKC3YKMDDk5bUjK1kHB3Cmbr2P8DJOamEOaJTwxJJA1uCDmkydiZoM8/kspOLRTYZOo/UsoqZz21waPVKJ3W+v5F5GgUh/FJP4EjxujT6NXGLprIkWToiG9As7Wm8Ei5FJFLbFNb93t6XnMqiE87BI5mjnKbYLyFkGfsa/9DfVqeHlDnXTBGCZy2jItMsyjsjho7kV2zHYOpG806/6M5RqsCjNMwMyuNFiizdH2VyJM1TEiIWiv5G0lLoheqSUjITsKbi0XNqWflhBfCphIpoqDXMakcyiuYnMJQqDckkHUpbcouVgmrRm0HMZoqarIYVNDRgRsxk5XmB55M0nPJmqbSjqIK1FX/cplg5ZiKicobwR7SxMWNZjIYWk5AzyimpFwalTD+sm2eaijFnsn8cs0Qth05rTrfxbCAN14/IgdFUpqzsneBOu8lfiqolqMk1uCeXGRPGxkE0/0VoJsIB5besa41KH48BxExqGR+tHpu04OU1lLqK1+aDQwuVfbT9mDHYA7ly6dpGm/3smOr2EDDklxVskIgBLNKoqUpmItuhFmyMDSBCeQmJiLMml/OIvTQrYUrSTbPGzV5CIbS22Kg1xlSZwUCYc4Tr+R5EbwqRcjkjkFYhlBqW/0RQ1GerUCXnJ27bCyjtAZ0Ipg+zaqKcRp9hfegSuyhR5EPBakmdv/AB+h5ymkIq02FolCDmHYjEScVIT+B4IuK4qyCIhv9QzQOkJouDQmxtnoqRSzLVT9jUddJTfcp2phKUayEk2cR+Rz97LwkN11S2IKz3KM/rItDq0rjL/AoJFrtqNurMNSrJpBW8hQ9ZhJ/k8ho9Rp9+tQKk2xP9IyQsIlLZwkibI0rgg7lmW0pxv/AL0pqHR/bQSpm3Am2R26rLTDy1RrG2kWq6qxOEECWkG8oSRTImcaCdEhj1fTijR7E/WDBlYauG8lLchL0umk4Jyk0Ik4W5oCSxLOTMTx9l7G4TYWOkUFksvlIgE6VTUr+CkkKO81TunMyQDzo3DzX4F5WRtl+vlUIJrSB2TgFcVKyR02wU46zJSgavJHYkGSdSrI1EVZ2wbKv2ySTbMFhOlFmiVnKGoSQBaNqpAEstBEr/EyJ9dOrnLvRiImwczCjcm1cG9jeUT3YRoA/edG8yK0WD0WeIaij2k/wSWeie7mnObDsxIaBaFfrEAyq7tif5Ju4RoWlUOFWXgRvfU+hhtiKUj0FzL0si/XUxqNFaxk6sT63KbLhqsSKMJM63hZdDHDJTNJIIkshA8y5G6Tl2Yayd9zS6sg2LdTBKrdYThyFQJ1LAyVDwOpRMuf9FnhAwNnh8zxcSjCFRE1ZK0xCnswgoh/2UQyzR3wyUWx4Fm+wXq2jJQiR6IQImyz7sFlNFFTqJGJsjQBKfjBaklvIM2mBCZrr86OxQDq8p10mo9XBQt8ImjyIkHx0RmPyMW/qdMWSf6rc37pKRcRFh9s/wDuCBKjn/YjBEZBKytGSYoKUMSa/YnISQv+Kt/piekTVJ/1n//aAAwDAQACAAMAAAAQJDgAAAAAAAixhBRzBBiCxxxxxxxxxxxxxxxxxjDDjOOOOOOOOOOOOOOOOOOOOOOOOOOOOOOOOOOOOOKCV/8A6JDzjjjjjjjzjjzjjjjjjjjjjjjjjjjjhZv6vv8AkEO2DDDDDDDDDDDDDDDDDDDDDDDDDDDDCwIn+4NWpygoIIIIIIIIIIIIIIIIIIIIIIIIIIIIILYv/oHar7ykEEEEEEEEEEEEEEEEEEEEEEEEEEEEEGqv+4IOr7ykEEEEEEEEEEEEEEEEEEEEEEEEEEEEEGqv/wCAZq+8pBBBBBBBBBBBBBBBBBBBBBBBBBBBBBBqr/qDWq+8pBBBBBBBBBBBBBBBBBBBBBBBBBBBBBBqr/8AgH6skQDgggggggggggggggggggggggggggggkK/6guvr25bzzzzzzzzzzzzzzzzzzzzzzzzzzzzzjyv6gvP/AO87333333333333333333333333333332z/APrC44ezBHbTzMTwzxH33DTRXzMLBTzYxxxxxxxxxwAANbEPNVDFaotbPbl9PMZFDasqFFYEPPPPPPPPPPdA9p+9/VBVqqVp9pX/AAvK16avKV1alvfffffffffawvafvf1QVaqlafaV/wALytemr6ldWpb3333333332k823r+WcF+r7WvylPOpRFOGroLN/wCa9999999999p995Qrb3DqJ1DxppbZyBXRRF31JjB09999999999r99rX/AOXdlFec7dmo9+0rOidIuh640/fffffffffa/faeZXv4OuI/6/NMtkVk7PWLHV0SH/fffffffffb8daezfbfbfrPfqDzn3un3C3bjkXyf/ffffffffffTffb/ffffffffffffffffffffX3zfffffffffffff//EACgRAAIBAwMEAgMAAwAAAAAAAAABETFhcRChsSFBkcFR8CAwQIHh8f/aAAgBAwEBPxBC7pnM5nM5nM5nM5nM5nM5nMpnM5nM5nM5nM5nM5nM5nM5nM5nM5nM5nM5nEuu9N1+MEEEEEEEaQRpBBBBBBBBBBBBBBBBBBGu503WqJQ0bLLLLLLLLLLLLLLLMpZZZZlLLLLLLLLLLLLLLLLLLLLLLLLLLLLLLLLLLLLEWqLcnbTc6b8Sh+5JDGMhKRmZmZmZmZmZmZmZmZmZmZmZmZmZmZmZmZmZmZmZmYkJo3j03Wm/N0ijjTrIIIIIIIIIIIIIIIIIIIIIIIIIIIII0epvHputN8bpFHTq/vpZvHputN8bpFHTq/vpZvHputN0bpFHTq/vpZvHpudN8bpFHTq/vpZvHputN8bpFHS6RJJJJJJJJJJJJJJJJJJJJJJJJJJJJJJ3G8em603AyRMS0kmFmWh/MXi8Xi8Xi8Xi8Xi8Xi8Xi8Xi8Xi8Xi8Xi8Xi8Xi8Xi8Xi8TnU3r03Wm61eyxdeS68l15LryXXkuvJdeS48l15LjyXXkuvJdeS68l15LryXXkuvJdeS68l15LryXXkuPJdeS68l15LryXXkuvJdeR0JEtuXpu9JJHUuS5ExxMicSEzvLoiq4nd5dCimZclySOsujvTLofSNz4nH8o6ScxO7y6OlMxfKGqric4Tl+XJclyXJclyXJclyXY8ekn+HZl+jfLk3zO/HtacSKIz29aVeOD3caOn78FB9WEUv73WnN5KIzg86cSPqwUfrX4OjL9G6XJXyzvx7R2OJFEZ7etKvHB7ONHR9+Cg+rCKX97rTm8lEZxedOJH1YFT9a/B0Zfo3S5K+Wd+PaOxxIojPb1pV44PZw9HR9+Cg+rCKX97rTm8lEZxedOJH1YFT9k69mX6N8uTfM78e1pxIojPb1pV44PZxo6fvwUH1YRS/vdac3kojODzpxI+rAqfrX4doFKco6ttsUqmjbdRSnK0lx8NJbqLp1WjmhEjbaXUl9tJbST7CbXVaS0mvnRtuozaVUp+taoUJrr1/yOwk5hiTSfI5ojoG4ekJLBOhF9O44+SXcSc1HMdBIdRzBPU6iOOpH7F+Dc0DmToE/jSZO/+tF1TI57CRl0GvgUyGnPQRRBc+g5joKe5YKnQ6nX7sNvsS31Kv4Ezo/yaP8A6LRoSggfUXcNC6GW4+ooEXZToJR3G13Ix0Gm0P8AYv6Za6or+/8A/8QAIxEAAgICAwADAQADAAAAAAAAAAERYSExEEFRMEBxIIGhsf/aAAgBAgEBPxBCyP3GzplTKmVMqZUypi8GLzZWytlLKWUspZSyti82VsrZWytlbK2VsrZWytlbK2VsrZWytlbK2R4PjJr+WfrTzoFlGrlaivZeWlpaWlpaWlpaWlpaWlpaWlpaWlpaWlpaWlpaWlo0qZHhtcaTQ1mRYbIOWhUv78kkkkkkkkkkkkkkn6ge3xoEwaP4G37/APpD2+NZJq/hbfv6Pwe3xrJNH8Lb9/R+D2+NAlgaU/hbfv6Pwe3xrG4Zq/gbfv6Pwe3xpIk1HYyHQY1IsFgsFgsFgsFgsFgsFgsFgsFgsFgsFgsFgsFgsFgsFgsFgVpU/B7fGjjTzH1TZD0sLCwsLCwsLCwsLCwsLCwsLCwsLCwsLCwsLCwsLCwRLI1l8aBZNfNkv0l6S9JekvSXpL0l6S9JekvSXpL0l6S9JekvSXpL0l6S9JekvSXpL0l6S9JekvSXpL0l7zpNBypCsrKCsoKikp41JSUlPCrKiXopEasp41Jg0UlJWUFRUVFRUVFRUUCK2hPBCSAkkRQIoCBpAqyKgkhL/UhCqBFAkoElMaQqhCJQkhRIVBIIoDSBdiqRCIXhC8IXhC8IXhC8IXhC8IXhC8FUGMP41ZoOh0d/03CF/wA8aGhodxmg3QjZ/g3CNB6d/wBNgvj1HszPOpoOh0d/03CF/wA8aGhodxmg3QjZ/g3CNB6d/wBNgvj1Iknjs1NAykbwd/3kRY+DQ0O4zRD5QjZwI0Eod/3gXx68txslbHDWSVwxoT2RhmDCyNrsUdGzQomRtCha4JjEyhw8MlELIaUZIW0OHhmPj151GkycQYwOIkWWNCU2NBsSlEwxN4PKFHM6NiSfRCbNiJZ0ZQ8oUGZ6Qvj04nJoTgQ0OTsIjY1ODwiKEvR0YjgsPA4TyMaSWBWLeBtdjmBtRgSjIlLgiOjT5HAg0I8NCCHDSeGQuYyORBHRBBAghEEEEIfiMzw0+TY7GI7+qkkiGT8rUn//xAArEAACAQIFAwQCAwEBAAAAAAAAAREhMRBBUWHwgZHBIHGh8UCxYNHhUDD/2gAIAQEAAT8QmpOD9ipBBDIZDIZDIZDIZDIZDIOhU6HRnRkvckkknYvkdDoSTsTsdCXoxy3Yqe6OjOjOjOjOjOjOjOjOjOjOjOjOjOjOjOjOjOjOjOjOjOjOjOjOjOjOjOjOjOjOjOjOjOjJejJnIlktOosEBbhMsjn8n8SJFixYsWLFixYsWLFixYsSJEiRJqHKtPQxY8WV8GPF/wAt58SJFixIkSJEiRIkSJEiRIkSJEiRIkSJEiRIkSJEiRIkSJEiRZu5FFeu7GlpXRiUcDsxU4p/zkLVkLVkLVkLVkLVkLVkLVkLVkLVkLVkLVkLVkLVkLVkLVkLVkLVkLVkLVkLVkLVkLVkLVkLVkLVkLVkLca0ZD1+SrP5IWrIWrIWrIWrIWrIWrIWrIWrIWrIWrIWrIWrIWrIWrIWrIWrIWrIWrIWrIWrIWrIWrIWrIWrIWrIWrIWrIWrIWrIWrIWrIWrIWrIWrIWrIWrIWrIWrIWrIWrIWrIWrIWrIWrIWrKLm+CLmc3p/g8esa6nL6fUvYspt0xE2W5/kf0HKPBwDwcA8HCPBwjwcI8HCPBwjwcI8HCPBwjwcI8HCPBwjwcI8HCPBwjwcI8HCPBwjwcI8HCPBwjwcI8HCPBwjwcI8HCPBwjwcI8HCPBwjwcI8HCPBwjwcI8HCPBwjwcI8HCPBwjwcI8HCPBwjwcI8HCPBwjwcI8HCPBwjwcI8HCPBwjwcI8HCPBwjwcI8HCPBwjwcI8HCPByjwJGGnp/gNNodVk4a9a12Zy+n1ZR1mkVKDl/hJK5vG8bxvG8bxvG8bxvG8bxvG8bxvG8bxvG8bxvG8bxvG8bxvG8bxvG8bxvG8bxvG8bxvG8bxvG8bxvG8bxvG8bxvG8bxvG8bxvG8SbuQST7B8loooJnL1Lchy+nBG0XNxA1OsdyTL5OUkUtJVScsJDsKwr7G8Nlm8N4bw3hvDeG8N4bw3hvDeG8N4bw3hvDeG8N4bw3hvDeG8N4bw3hvDeG8N4bw3hvDeG8N4bw3hvDeG8N4bw3hvDeG8N4bw3hvDeG8N4bwr3dhsm5oVTaDT0FbLp6FLMzIcvpwWx2obVIGxmEkY2bk225KBKhQk8q/EupskSlpFOy0GTkOlSImlvknb5J5JPJJ5JPJJ5JPJJ5JPJJ5JPJJ5JPJJ5JPJJ5JPJJ5JPJJ5JPJJ5JPJJ5JPJJ5JPJJ5JPJJ5JPJJ5JPJJ5JPJJ5JPJJ5JPJJ5JPJJ5JPJJ5JPJJ5JPJJ5JPJJ5JPJJ5JPJJ5JPJJ5JPJJ5P+E1ppr/heq8ZDIanHsK3ocszMmcvpwrXWcOatQlwMw9tUj5M+s4JRqQtyFuQtyFuQtyFuQtyFuQtyFuQtyFuQtyFuQtyFuQtyFuQtyFuQtyFuQtyFuQtyFuQtyFuQtyFuQtyFuQtyFuQtyFuQtyFuQtyFuQtyFuQtyFuQtyFuQtyFuQtyFuQtyFuQtyFuQtyFuQtyFuWUIbsw+UfpFb0VlmZk9jm9OH7/wC8OysZfwAfo+PwM49hW9DljuOz9i95xw/f/eHZWMv4BP8AHw+BnHsK3p+54cLpw/f/AHhyVjL+AT/Hw+BnHsK3re87pw/f/eHJWMv4BP8AHw+BnHsK3q+5nOacP3/3hyVjL+AT/Hw+BnHsK3opwsbhuCD59OH7/wC8OSsZfwCf4+HwM49hW9Jxuo8/Y4fTh+/+8OSsZfwCf4+HwM49hW9J1jrInPy4fv8A7w5Kxl/AJ/j4fAzj2Fb0vXcdzhdOH7/7w7Kxl/AJ/j4fAzj2Fb1XXdnP6cHp98Gasis2wPuGd/8AvaFfRhQDj2Fb0Pg47P2Hnj04JKRWtWsv8wpqYKkiY7UUkkpk5Q1CrVnLPJwjyco8nKPJyjyco8nKPJyjyco8nKPJyjyco8nKPJyjyco8nKPJyjyco8nKPJyjyco8nKPJyjyco8nKPJyjyco8nKPJyjyco8nKPJyjyco8nKPJyjyco8nKPJyjyco8nKPJyjyco8nKPJyjyco8nKPJyjyco8nKPJyjyco8nKPJyjyco8nKPJyjyco8nKPJyjyOL9P9goDFTaoVemAX/ZfpCt6XruZvYbj5cE1LhBuzFPCJHrIlFJIo1w4sZnNShJpGtpSyNypyTH9E6knQdB0HQdB0HQdB0HQdB0HQdB0HQdB0HQdB0HQdB0HQdB0HQdB0HQdB0HQdB0HQdB0HQdB0HQdB0HQdB0HQdB0HQdB0HQdBOxRYblVwSjpQvV9zexx+n1IBZJzjIN1uwfWH0B9AfQH0B9AfQH0B9AfQH0B9AfQH0B9AfQH0B9AfQH0B9AfQH0B9AfQH0B9AfQH0B9AfQH0B9AfQH0B9AfQH0B9AfQH0B9AfQH0B9AfQH0B9AfQH0B9AfQH0B9AfQH0B9AfQH0B9AfQFTwCzZdBeoc0ycicqvquuicHL6fUoJUmHSVI3aUtnm7SSWb7k9e4nr3E9e4nr3E9e4nr3E9e4nr3E9e4nr3E9e4nr3E9e4nr3E9e4nr3E9e4nr3E9e4nr3E9e4nr3E9e4nr3E9e4nr3E9e4nr3E9e4nr3E9e4nr3E9e4nr3E9e4nr3E9e4nr3E9e4nr3E9e4nr3E9e4nr3E9e4nr3E9e4nr3E9e4nr3E9e4nr3E9e4nr3E9e4nr3E9e4nr3E9e4nr3E9WOCo03ZqV+hts7mcuZPf0UYevM4fT6nb+AO2Dv6lrsU8+nDMmDLCakwTUmpNBiZJOGZJKJQq4NmQq4NkolGYq4OhNRuENwqmQzIkVcMySSSSUSSTjP4rZKEbPchoTbsNtmZAlIv0wEzHXDIoUKhUoqa6F7VGdRDRqjV0sDLa20ZaVKKmuhGf2OylWqppqVCr/AKYsWuBPxzu2yXQ2FWtKe/HN39M7XvWzmKk9u3YXNT9hgleVBQ19fcew5tTQ1yJdKDQRfyuhV0lSiproQJ5mSlWqpprh5juZjIhOGpW9NdWLEuHXK/kFVTRNV6Cl9SE1So3hSqN+GdKV5UFD7/uLZdujKGuRLpnhNewt8btkJnZPUl9+CpDs0Uaeux/ZBcVYyxq4pNSl6aqsW1cDYRkR1MXLAhizRVrjbdFO1WkzIaNUadVg5qfsMEryoKGvr7j2HNqaGuRLpScCtOQWN2yFKiTf6G+b4Kljs0Ua+uziBHWv4qxzd/TO171s5ipPbt2GymbtxGLNFWuNt0U1l73Mho1Rq/4p0yZMmTJkyZMmTJkyZMmTJlysjDPFEfOciWjzorGwgSIRFSmA9ZZqXA8RyPXIPEIam1h267s1FhqhL+IRCIGheTnQvLmElLKIGOs7A8IkZfsZuZ1dTYxQgaNpnyEopvFSIZY5MWogglSLsugcUFlSd6DtmbuUjYSr0w51v7xwNC8nOheXMJKhTBkW7emw4GiX8QiEQPB2sxtlxoQiEQiEQiEQiEQiEQiEQiEQiEQiEQiEQh390RCr6Mv/AA7ow+c53TA7YDJegTAV/Q3bvP2wfWHEahDt19UGBLN5IdnjKrv1exYmAreiXLdlgMl6HYPJ/jZod/Rl/wCBfmHznO6YHgGS9AGAr+hO3ze2D6w4DUK47dcYKDTGWbyQ7j5mBV3t6rasDAVsZet5DssBkvQ7BrP8c/Rl6y/MPneRzumB4BkvQBgK/oTt83tg+sOA1CuO3XGCg0xlm8kO4+ZgVd7eq2rAwFbGXreQ7LAZL0Owaz/HMmBPDL1l+YfO8jndMDwDJegDAV/Qnb5vbB9YcBqFcduuMFBpjLN5Idx8zAq729VtWBgK2MvW8h2WAyXodg1n+OjTBUwy9ZfmHzvI53TA8AyXoAwFf0J2+b2wfWHAahXHbrjBQaYyzeSHcfMwKu9vVbVgYCtjL1vIdlgMl6HYNZ/jO4rCtUeGU4t+eZNk+fHyaGqdRsv6REsdsFkjPADSYK69Ddu6JnfBVsOI1CcsboVYIsNMJcDPwJGCHNCdegsndkHngBWBBqiM9hcu6Q7YLJeh3jWf4zuKwrYtwsZ6vMrxHjti+6hJ1HcS6qxkZkj1lcwSGaoJMeLh6pRnRVtgs/Me4s6FxJgBWJwNCtWuF80GkQ9jApVw90ieZI9ZXMEhkhX7xaQNrYbliXVWMsFn246TNOfxncVhWxdhrJrJdtSMyrtkxmNom3RbNJxKeSFUfUSzfgpjMq7ZXFaGo3002MyztnhEuWVgR5zQ6I5Wa/cRUabP87pXTNncRNRI8sQWMlRKjSuiKHGwBEYOEimFjNEwRtrspM5lX7CMom305YzLu2awSVTuWB8k0oVKWj9mYlCwdGnPc7RCkJmrhGklsOxk/wAALGSrtLoi6xsRVGDhIrLYNotK0qLbSdJejFGD1jptIJJNm7kWFmE1dJgth4JhQqUtH7CCxKAsmeIQaaTNWG8aEbdBqUnErREmRnACxkqJUhXRFDjYgiMHCRTC2DILStKEtJ0l6MRmK0R00gkk2buRrqNVP8bpXTNncUxUsyRR7M9Qg00masNxFI26LUpOG08kRT8Z3Fb0O5NSa3Jl0G2nJepNamZmTUmFsS5WhMsmotyzPcsTsOCaE0KP0NwyRN3ihOEk0G5yJZNCdRyVFOGZNROV/eEsrng3DG28qYJwidKrYu/x3cVsWIYxJKrbyI0QwpZJiVKUlkxtzOCIJM1HKNUa0agVIkTPN4pqUM5a3GfsLsM9SqrVlfMMmttJqyE8cpZbC/yL4q2EdcpNqlVQWJLY0tR3kM6YQmZymhJnQJCxD4rEckXormK1f0IfGqD2tZWcdgtGC2+q45o6axSRS3HmjJMNaiOMjyEHo0E5ab0ylEuwsGBNmkHqiVSayohss7XRphLNuBf1NeTMluw1Nq2F2KtT0xtnSRTWmaFa4m86XNOVdU1dD0rxAzOJLUriGnu2a8TSkuEhLdEAQn4FE0c252L0cAUU6ktRErJdhsHWLHU6rBy3tSR0aNCZaenC4dEthy6MPMZyG6i0smqDq5E4uE7SV8CRshNTUl3cTDh0G3lYSZSdFAqzBZ0P2KF9qjVWVLq5ZZEQsh7rk1Sum00qkbvblEp6iVlFUCVVoY6UTWPYKkJLJOXxA2xedcvhFlm402tmiP1mqDZwNOjdxIm1kpqFMTM6VW4fYT2TEAztTCXaMnDE0xOF6aybUOqfYVq0csLKQiM8i6oMVKoIhOXlSvlkRP4zuK3oasRDWTaHZp0cGoQKYm5kFFhsUUdWmotM4EsTstFLicI1TzasIzboSpNm5Qs1bR5RCjW1OUCCeEdZ8KqNJrk7iuFqnNttKIlrtExJ+9SlVlcyRZJUSiqmrirGMdRsZG4DTJTRUJUE5VLjht0CaonIkQUONCUcvlGf6Bz1HdFCeiSzWCuLerQjb0aG0lFqsczbGOpDo04VlToP7ua0SV2xQbmv6FRtO0UF1SExPnyN833soMpUKtXilZ2Gzye26uondVK9qojjD3KaozmlOwhLaOLgzpu/oaUVJ3HnaXmmUZeRFYLymbNtzcw+odKKLQ741D6ukA6Tm5RBNVKFmqRkNPrHZJEkNzWObUhS26Go3bfKg3KEkobmzUjVI636rZptFO1nR6iU4ZORGjtHC8wobhVIkgtgCXV0stNt1iopKSElZZDNHH+NJ5szVycuglDiUHRM1yyJyNpOtbUDfEDA1SyUQK9/4MEiCKtwRJXtmJsrI9qIBOL3KElWsISJdcmk2yKYOUpdBMUrSKWoqT8LRgKJUx4E4RTgIdKnDH3WJloWJapKzVNs0lWskLJKgw17oin4zuKw6EzgpkJOZwNTuZ/kjjUtmVB1cK+gzpg15cJSSbUtwQmmm4jWSbKpUpom1ScrjnTboiWLXdYpN0HNFrlQqlKl2K7ctsUZYGs4JXgYBCYpSElSrSaTAo8MWy1QcPbmSKlql0xeK19W+1be+RVhM0kHEEi8F0NMNxvk2T1eTqakVhDpnotebiFhOlZgnZlRHbi9coRVaac0lDSBY5Z2/lZqyIxUXAc8PJS0O6+p7NCkyINXiFceCdtjaSULqGoqPiK8VozylJV8iOhYnCJMi1f4IUwdMsmpbTlOVlllFYvRBjCNXTLZzS7FksZLHZHLlJNCVRhFBUo1mmjXtnYagjbUGWWxDURmqXe9QhEFeqeyRkKixSUl+7HixpVlqSLlS7iXcTlV1pzJFSYfRDrmScsjX4idFMYkJfiQlO6aom4tEn2GOucYFVTlOSn6GkiUWZ1TFppaxATJ+Uog6ylaRNXXko4ZqKjCn533tzarYkrZuru3XAxM0UWq2Q40pzyBom0nCnZjnKpUNNpolMmsokmVhCAyKqmkMmamGkpmE7kgpq8u7tvsHTK01QNqxtQlxRVHqH83QifU6i/GzMx2QrYK+GWmdJ0t0TunYci51cCppnRLcSPgIEglLOUlLqQDsT9G4qxJFdt6DAvVqJ2uC2bYpHhkRUqb5UTrCHaNRolLbeSGFy0oMRKpt5VtDbHrILaFmVvGamRFbEFh6VYJimt7CiJqPO5G2g6dblYpCrVo2pM27yGymcJ2ULKMEiURCnIdBOamlY2HWB7TiwCpx9WG9xwK6TUism1Lo21L0Et7O/K8JGbIeAC2WEu2hqU4hd6vZkvmME4KOXNtCrSikiXBVBLVJ/JvCqGAzk4QcCTyjqEbCMq0cDalyFvBAFKkzRigq1WjYV94Gti+TUdJqzFhTDWiUkW42VMUHiVZuW3LHUgYsdTDuGmHRcdFRFTz/fdVVEpMKWpAb1jW0eTYCPRmLVSLtTZMqKVVZB1poQZ8KXLSh7iVBYCjmkaKck5GgXgg40dGynMDmoqAJqSlW0KhHc8iFToU5nSmtCMxCvOZQCVyo1VOU1SpVei4u05mCazFM0E6Mg7ZhSYzN5LmrAFl8m8fd7CnTkrQftIvP4+Y02hWwnlMriUSXdjyQoqXoKxKaiqtdEDIUHMU06onFlT2IkSwgEIaFDZZppwJ/JGclCSEQKhM3wzLzJkWYTF6tkJTLiA0CZChUi25Em+G1tl7ERQargsL7ssLtLWolHQRPRCtvkeV2lwhwNHgpFn6lUiW9CDZaVFDqKiKYIxlNE1drljgdQxWPlIbO1nCogzx1pkw7DuxTNt08bDiekTnIsWfwJfYpVNGoZS/g0BIl1cJQSsRw6jl9NI1uNRJQCRu7YHEV+yHKciRSkJZCA8NuetLkpJ/QiZpWTjnEuCIdoDOwmcOqFVRQuhVxGRBBQ8OrCQnh6yQ1iJwiZtVJUFwDfny6Ram7Cjlg0VoTajTzFTsrKnHbVZQZdqyirREfjsWKr3HBtpd2rdwkrwIiI3aXq6XdSZRb/3nD2K+q2OZmZGeGuFvU25sNwq0WrJkm0UmimP4GYZxnMO0vgJTYkHKSyESFkqJDk2nWVGmnWoJfY0zmiE5/HZMImcM6EcRkRSBW/5DU2IEqx9v6ixFxU11gVGNvIyr8CUC/IdkK3/Pdvz/AP/Z;imageBorder=none;" parent="1" vertex="1">
          <mxGeometry x="160" y="150" width="441" height="241.12" as="geometry" />
        </mxCell>
        <mxCell id="3RhLqnkUmdzyEgS-0OvZ-2" value="" style="rounded=0;whiteSpace=wrap;html=1;" parent="1" vertex="1">
          <mxGeometry x="-390" y="370" width="200" height="300" as="geometry" />
        </mxCell>
        <mxCell id="3RhLqnkUmdzyEgS-0OvZ-3" value="P0.4" style="text;html=1;align=center;verticalAlign=middle;resizable=0;points=[];autosize=1;strokeColor=none;fillColor=none;" parent="1" vertex="1">
          <mxGeometry x="-245" y="390" width="50" height="30" as="geometry" />
        </mxCell>
        <mxCell id="3RhLqnkUmdzyEgS-0OvZ-4" value="P0.5" style="text;html=1;align=center;verticalAlign=middle;resizable=0;points=[];autosize=1;strokeColor=none;fillColor=none;" parent="1" vertex="1">
          <mxGeometry x="-245" y="410" width="50" height="30" as="geometry" />
        </mxCell>
        <mxCell id="3RhLqnkUmdzyEgS-0OvZ-5" value="P0.6" style="text;html=1;align=center;verticalAlign=middle;resizable=0;points=[];autosize=1;strokeColor=none;fillColor=none;" parent="1" vertex="1">
          <mxGeometry x="-245" y="430" width="50" height="30" as="geometry" />
        </mxCell>
        <mxCell id="3RhLqnkUmdzyEgS-0OvZ-6" value="P0.7" style="text;html=1;align=center;verticalAlign=middle;resizable=0;points=[];autosize=1;strokeColor=none;fillColor=none;" parent="1" vertex="1">
          <mxGeometry x="-245" y="450" width="50" height="30" as="geometry" />
        </mxCell>
        <mxCell id="3RhLqnkUmdzyEgS-0OvZ-7" value="P0.8" style="text;html=1;align=center;verticalAlign=middle;resizable=0;points=[];autosize=1;strokeColor=none;fillColor=none;" parent="1" vertex="1">
          <mxGeometry x="-245" y="470" width="50" height="30" as="geometry" />
        </mxCell>
        <mxCell id="3RhLqnkUmdzyEgS-0OvZ-8" value="P0.9" style="text;html=1;align=center;verticalAlign=middle;resizable=0;points=[];autosize=1;strokeColor=none;fillColor=none;" parent="1" vertex="1">
          <mxGeometry x="-245" y="490" width="50" height="30" as="geometry" />
        </mxCell>
        <mxCell id="3RhLqnkUmdzyEgS-0OvZ-9" value="P0.23" style="text;html=1;align=center;verticalAlign=middle;resizable=0;points=[];autosize=1;strokeColor=none;fillColor=none;" parent="1" vertex="1">
          <mxGeometry x="-245" y="580" width="50" height="30" as="geometry" />
        </mxCell>
      </root>
    </mxGraphModel>
  </diagram>
</mxfile>
